<?xml version="1.0" encoding="UTF-8" standalone="no"?>
<!-- Created with Inkscape (http://www.inkscape.org/) -->

<svg
   xmlns:dc="http://purl.org/dc/elements/1.1/"
   xmlns:cc="http://creativecommons.org/ns#"
   xmlns:rdf="http://www.w3.org/1999/02/22-rdf-syntax-ns#"
   xmlns:svg="http://www.w3.org/2000/svg"
   xmlns="http://www.w3.org/2000/svg"
   xmlns:sodipodi="http://sodipodi.sourceforge.net/DTD/sodipodi-0.dtd"
   xmlns:inkscape="http://www.inkscape.org/namespaces/inkscape"
   version="1.1"
   width="100"
   height="80"
   id="svg3315"
   inkscape:version="0.91 r13725"
   sodipodi:docname="Kontrollleuchte_Gurtwarnung.svg">
  <metadata
     id="metadata7">
    <rdf:RDF>
      <cc:Work
         rdf:about="">
        <dc:format>image/svg+xml</dc:format>
        <dc:type
           rdf:resource="http://purl.org/dc/dcmitype/StillImage" />
      </cc:Work>
    </rdf:RDF>
  </metadata>
  <sodipodi:namedview
     pagecolor="#ffffff"
     bordercolor="#666666"
     borderopacity="1"
     objecttolerance="10"
     gridtolerance="10"
     guidetolerance="10"
     inkscape:pageopacity="0"
     inkscape:pageshadow="2"
     inkscape:window-width="1920"
     inkscape:window-height="1018"
     id="namedview5"
     showgrid="false"
     inkscape:zoom="2.95"
     inkscape:cx="-33.728814"
     inkscape:cy="40"
     inkscape:window-x="-8"
     inkscape:window-y="-8"
     inkscape:window-maximized="1"
     inkscape:current-layer="svg3315" />
  <defs
     id="defs3318">
    <clipPath
       clipPathUnits="userSpaceOnUse"
       id="clipPath322">
      <path
         inkscape:connector-curvature="0"
         d="m 32.032,127.886 15.305,0 0,15.305 -15.305,0 0,-15.305 z"
         id="path324" />
    </clipPath>
  </defs>
  <g
     transform="matrix(5.6742574,0,0,-5.6742574,-174.94716,809.0335)"
     id="g318"
     style="fill:#e60005;fill-opacity:1">
    <g
       id="g320"
       clip-path="url(#clipPath322)"
       style="fill:#e60005;fill-opacity:1">
      <g
         id="g326"
         transform="translate(42.135605,137.3432)"
         style="fill:#e60005;fill-opacity:1">
        <path
           inkscape:connector-curvature="0"
           d="M 0,0 2.617,1.895 1.868,2.708 -1.216,0.474 -1.198,0.466 C -0.523,0.2 -0.205,0.213 0,0"
           style="fill:#e60005;fill-opacity:1;fill-rule:nonzero;stroke:none"
           id="path328" />
      </g>
      <g
         id="g330"
         transform="translate(36.478302,133.24789)"
         style="fill:#e60005;fill-opacity:1">
        <path
           inkscape:connector-curvature="0"
           d="m 0,0 c -0.009,0.211 -0.014,0.417 -0.011,0.616 0.003,0.265 0.019,0.517 0.041,0.761 l -2.749,-1.99 0,-0.001 -0.009,-0.006 0.758,-0.806 0.012,0.008 c 0.527,0.397 1.21,0.712 1.991,0.942 C 0.017,-0.314 0.008,-0.156 0,0"
           style="fill:#e60005;fill-opacity:1;fill-rule:nonzero;stroke:none"
           id="path332" />
      </g>
      <g
         id="g334"
         transform="translate(45.536606,132.6275)"
         style="fill:#e60005;fill-opacity:1">
        <path
           inkscape:connector-curvature="0"
           d="m 0,0 c -0.704,0.53 -1.645,0.945 -2.716,1.223 0.003,-0.348 -0.008,-0.711 -0.046,-1.084 0.786,-0.231 1.475,-0.546 1.995,-0.938"
           style="fill:#e60005;fill-opacity:1;fill-rule:nonzero;stroke:none"
           id="path336" />
      </g>
      <g
         id="g338"
         transform="translate(39.642899,134.2449)"
         style="fill:#e60005;fill-opacity:1">
        <path
           inkscape:connector-curvature="0"
           d="M 0,0 C 1.119,0 2.201,-0.141 3.178,-0.394 3.158,1.022 2.85,2.169 2.739,2.581 2.665,2.846 2.591,2.996 2.493,3.098 L -1.988,-0.145 C -1.356,-0.053 -0.693,0 0,0"
           style="fill:#e60005;fill-opacity:1;fill-rule:nonzero;stroke:none"
           id="path340" />
      </g>
      <g
         id="g342"
         transform="translate(36.511703,132.77209)"
         style="fill:#e60005;fill-opacity:1">
        <path
           inkscape:connector-curvature="0"
           d="m 0,0 c 0.113,-1.125 0.449,-2.337 1.208,-3.448 l 1.369,0 c -0.531,0.777 -0.781,2.3 -0.968,3.036 0,0 0.486,0.27 1.522,0.27 1.036,0 1.522,-0.27 1.522,-0.27 C 4.468,-1.148 4.217,-2.671 3.687,-3.448 l 1.368,0 C 5.813,-2.339 6.15,-1.131 6.262,-0.005 5.33,0.269 4.257,0.422 3.131,0.422 1.991,0.422 0.926,0.273 0,0"
           style="fill:#e60005;fill-opacity:1;fill-rule:nonzero;stroke:none"
           id="path344" />
      </g>
      <g
         id="g346"
         transform="translate(40.357803,138.9404)"
         style="fill:#e60005;fill-opacity:1">
        <path
           inkscape:connector-curvature="0"
           d="m 0,0 c 0.506,0.247 0.854,0.738 0.854,1.313 0,0.819 -0.701,1.483 -1.569,1.483 -0.866,0 -1.569,-0.664 -1.569,-1.483 0,-0.575 0.349,-1.067 0.855,-1.313 0.077,-0.4 0.267,-0.797 -0.581,-1.131 -0.999,-0.394 -1.219,-0.165 -1.442,-0.983 -0.09,-0.335 -0.309,-1.154 -0.398,-2.202 l 4.412,3.193 C -0.261,-0.79 -0.076,-0.397 0,0"
           style="fill:#e60005;fill-opacity:1;fill-rule:nonzero;stroke:none"
           id="path348" />
      </g>
    </g>
  </g>
</svg>
