<?xml version="1.0" encoding="UTF-8" standalone="no"?>
<svg
   xmlns:dc="http://purl.org/dc/elements/1.1/"
   xmlns:cc="http://creativecommons.org/ns#"
   xmlns:rdf="http://www.w3.org/1999/02/22-rdf-syntax-ns#"
   xmlns:svg="http://www.w3.org/2000/svg"
   xmlns="http://www.w3.org/2000/svg"
   id="svg2550"
   height="80"
   width="100"
   version="1.1">
  <metadata
     id="metadata9">
    <rdf:RDF>
      <cc:Work
         rdf:about="">
        <dc:format>image/svg+xml</dc:format>
        <dc:type
           rdf:resource="http://purl.org/dc/dcmitype/StillImage" />
        <dc:title></dc:title>
      </cc:Work>
    </rdf:RDF>
  </metadata>
  <defs
     id="defs2553">
    <clipPath
       id="clipPath2304"
       clipPathUnits="userSpaceOnUse">
      <path
         id="path2306"
         d="m 364.48,218.152 19.373,0 0,18.358 -19.373,0 0,-18.358 z" />
    </clipPath>
    <clipPath
       id="clipPath356"
       clipPathUnits="userSpaceOnUse">
      <path
         id="path358"
         d="m 30.757,108.259 17.852,0 0,17.851 -17.852,0 0,-17.851 z" />
    </clipPath>
  </defs>
  <g
     transform="matrix(1.1674538,0,0,1.1674538,140.19107,-17.515051)"
     id="g3389">
    <g
       transform="matrix(1.9977626,0,0,-1.9977626,-135.44314,284.00208)"
       id="g352">
      <g
         id="g354"
         clip-path="url(#clipPath356)">
        <g
           id="g360"
           transform="translate(45.931,113.2803)">
          <path
             d="m 0,0 c 0.053,-0.126 0.125,-0.234 0.215,-0.324 0.09,-0.09 0.199,-0.162 0.324,-0.216 0.127,-0.054 0.252,-0.09 0.396,-0.09 0.145,0 0.27,0.036 0.397,0.09 0.107,0.054 0.216,0.126 0.306,0.216 C 1.746,-0.234 1.818,-0.126 1.87,0 1.925,0.126 1.942,0.252 1.942,0.396 1.942,0.522 1.925,0.647 1.87,0.773 1.818,0.9 1.746,1.008 1.638,1.097 1.548,1.188 1.439,1.26 1.332,1.314 1.205,1.367 1.08,1.403 0.935,1.403 0.791,1.403 0.666,1.367 0.539,1.314 0.414,1.26 0.305,1.188 0.215,1.097 0.125,1.008 0.053,0.9 0,0.773 -0.054,0.647 -0.09,0.522 -0.09,0.396 -0.09,0.252 -0.054,0.126 0,0 M 1.853,3.149 C 1.853,3.041 1.835,2.933 1.781,2.825 1.746,2.717 1.673,2.609 1.601,2.519 1.529,2.429 1.421,2.357 1.314,2.303 1.205,2.249 1.08,2.231 0.935,2.231 0.81,2.231 0.701,2.249 0.594,2.303 0.467,2.357 0.377,2.429 0.287,2.519 0.197,2.609 0.125,2.717 0.072,2.825 0.018,2.933 0,3.041 0,3.149 l 0,4.823 c 0,0.144 0.018,0.27 0.072,0.378 0.053,0.108 0.125,0.216 0.215,0.288 0.09,0.09 0.18,0.144 0.307,0.197 C 0.701,8.872 0.81,8.89 0.935,8.89 1.224,8.89 1.439,8.818 1.601,8.638 1.763,8.476 1.853,8.26 1.853,7.972 l 0,-4.823 z M -6.045,-2.16 c 0.558,0.162 1.079,0.378 1.565,0.666 0.486,0.288 0.935,0.63 1.332,1.026 0.396,0.414 0.72,0.846 1.007,1.331 0.289,0.486 0.506,1.009 0.648,1.566 0.162,0.558 0.234,1.134 0.234,1.746 0,0.611 -0.072,1.205 -0.234,1.781 -0.142,0.558 -0.359,1.099 -0.648,1.584 -0.287,0.504 -0.611,0.954 -1.007,1.35 -0.397,0.413 -0.846,0.756 -1.332,1.044 -0.486,0.288 -1.007,0.504 -1.565,0.666 -0.576,0.161 -1.152,0.233 -1.782,0.233 -0.594,0 -1.17,-0.072 -1.728,-0.233 -0.576,-0.162 -1.097,-0.378 -1.584,-0.666 -0.503,-0.288 -0.934,-0.631 -1.349,-1.044 -0.413,-0.396 -0.755,-0.846 -1.061,-1.35 -0.289,-0.485 -0.523,-1.026 -0.686,-1.584 -0.16,-0.576 -0.232,-1.17 -0.232,-1.781 0,-0.612 0.072,-1.188 0.232,-1.746 0.163,-0.557 0.397,-1.08 0.686,-1.566 0.306,-0.485 0.648,-0.917 1.061,-1.331 0.415,-0.396 0.846,-0.738 1.349,-1.026 0.487,-0.288 1.008,-0.504 1.584,-0.666 0.558,-0.162 1.134,-0.234 1.728,-0.234 0.63,0 1.206,0.072 1.782,0.234 m -0.99,7.559 c 0.234,-0.109 0.431,-0.253 0.611,-0.432 0.162,-0.198 0.306,-0.414 0.396,-0.666 0.11,-0.234 0.145,-0.505 0.145,-0.774 0,-0.288 -0.035,-0.54 -0.145,-0.792 C -6.118,2.501 -6.262,2.285 -6.424,2.087 -6.604,1.907 -6.801,1.763 -7.035,1.655 -7.287,1.547 -7.539,1.493 -7.827,1.493 c -0.27,0 -0.522,0.054 -0.756,0.162 -0.252,0.108 -0.449,0.252 -0.629,0.432 -0.162,0.198 -0.306,0.414 -0.396,0.648 -0.109,0.252 -0.144,0.504 -0.144,0.792 0,0.269 0.035,0.54 0.144,0.774 0.09,0.252 0.234,0.468 0.396,0.666 0.18,0.179 0.377,0.323 0.629,0.432 0.234,0.108 0.486,0.162 0.756,0.162 0.288,0 0.54,-0.054 0.792,-0.162 m 0.863,4.265 C -5.631,9.502 -5.145,9.268 -4.714,8.98 -4.263,8.674 -3.869,8.332 -3.507,7.918 -3.148,7.505 -2.86,7.055 -2.625,6.586 -2.625,6.479 -2.68,6.388 -2.752,6.299 -2.824,6.208 -2.914,6.155 -3.004,6.1 l -9.628,0 c -0.09,0.055 -0.179,0.108 -0.252,0.199 -0.072,0.089 -0.107,0.18 -0.107,0.287 0.232,0.469 0.521,0.919 0.863,1.332 0.359,0.414 0.755,0.756 1.206,1.062 0.432,0.288 0.918,0.522 1.457,0.684 0.523,0.162 1.062,0.252 1.638,0.252 0.575,0 1.134,-0.09 1.655,-0.252 M -8.997,0.612 c 0.361,-0.145 0.755,-0.216 1.17,-0.216 0.433,0 0.827,0.071 1.188,0.216 0.359,0.161 0.701,0.323 1.025,0.521 l 0.937,-0.737 0,-0.09 0.162,-0.216 0.071,-0.234 c 0,-0.072 -0.018,-0.126 -0.053,-0.216 l -0.055,-0.018 0.055,-0.072 c -0.504,-0.324 -1.045,-0.576 -1.583,-0.756 -0.559,-0.18 -1.134,-0.27 -1.747,-0.27 -0.594,0 -1.187,0.09 -1.763,0.27 -0.576,0.18 -1.098,0.432 -1.566,0.756 l 0,0.09 c -0.037,0.108 -0.054,0.198 -0.054,0.27 l 0.054,0.198 0.197,0.198 0,0.09 0.918,0.737 c 0.324,-0.198 0.667,-0.36 1.044,-0.521 m 4.841,2.609 c 0.09,0.306 0.145,0.612 0.145,0.936 l 0,0.378 1.386,0 c 0.125,0 0.232,-0.036 0.324,-0.127 0.09,-0.089 0.125,-0.197 0.125,-0.323 0,-0.433 -0.055,-0.846 -0.144,-1.26 C -2.41,2.429 -2.555,2.034 -2.735,1.673 l -0.089,0 C -2.877,1.529 -2.949,1.439 -3.039,1.385 -3.131,1.331 -3.238,1.296 -3.382,1.296 l -1.115,1.026 c 0.144,0.287 0.269,0.575 0.341,0.899 m -7.451,0.936 c 0,-0.324 0.037,-0.63 0.127,-0.936 0.09,-0.305 0.197,-0.576 0.324,-0.81 l -1.097,-1.115 c -0.144,0 -0.254,0.035 -0.344,0.089 -0.089,0.054 -0.162,0.144 -0.214,0.288 l -0.09,0 c -0.199,0.361 -0.324,0.756 -0.414,1.152 -0.09,0.414 -0.144,0.827 -0.144,1.26 0,0.126 0.035,0.234 0.124,0.323 0.092,0.091 0.2,0.127 0.344,0.127 l 1.384,0"
             style="fill:#e60005;fill-opacity:1;fill-rule:nonzero;stroke:none"
             id="path362" />
        </g>
      </g>
    </g>
    <g
       transform="matrix(1.9977626,0,0,-1.9977626,-844.38338,504.11197)"
       id="g2300">
      <g
         id="g2302"
         clip-path="url(#clipPath2304)">
        <g
           id="g2308"
           transform="translate(380.94791,223.0985)">
          <path
             d="m 0,0 c 0.057,-0.137 0.136,-0.254 0.233,-0.352 0.098,-0.097 0.216,-0.176 0.352,-0.234 0.138,-0.059 0.273,-0.098 0.43,-0.098 0.157,0 0.293,0.039 0.43,0.098 0.117,0.058 0.235,0.137 0.333,0.234 C 1.895,-0.254 1.973,-0.137 2.03,0 2.089,0.136 2.108,0.273 2.108,0.429 2.108,0.566 2.089,0.702 2.03,0.839 1.973,0.977 1.895,1.093 1.778,1.191 1.68,1.289 1.562,1.367 1.445,1.425 1.308,1.484 1.172,1.523 1.015,1.523 0.858,1.523 0.723,1.484 0.585,1.425 0.449,1.367 0.331,1.289 0.233,1.191 0.136,1.093 0.057,0.977 0,0.839 -0.059,0.702 -0.097,0.566 -0.097,0.429 -0.097,0.273 -0.059,0.136 0,0 M 2.011,3.418 C 2.011,3.3 1.992,3.183 1.932,3.066 1.895,2.949 1.816,2.832 1.738,2.734 1.659,2.636 1.542,2.558 1.426,2.5 1.308,2.441 1.172,2.421 1.015,2.421 0.879,2.421 0.761,2.441 0.644,2.5 0.507,2.558 0.409,2.636 0.312,2.734 0.214,2.832 0.136,2.949 0.078,3.066 0.02,3.183 0,3.3 0,3.418 l 0,5.234 c 0,0.156 0.02,0.292 0.078,0.41 0.058,0.117 0.136,0.234 0.234,0.313 0.097,0.097 0.195,0.156 0.332,0.214 0.117,0.039 0.235,0.059 0.371,0.059 0.314,0 0.547,-0.079 0.723,-0.273 C 1.913,9.198 2.011,8.964 2.011,8.652 l 0,-5.234 z m -8.572,-5.762 c 0.606,0.176 1.172,0.41 1.699,0.723 0.528,0.312 1.015,0.683 1.445,1.113 0.43,0.449 0.782,0.918 1.093,1.445 0.314,0.527 0.549,1.094 0.704,1.699 0.176,0.606 0.254,1.231 0.254,1.895 0,0.663 -0.078,1.308 -0.254,1.933 -0.155,0.605 -0.39,1.192 -0.704,1.719 -0.311,0.547 -0.663,1.035 -1.093,1.465 -0.43,0.449 -0.917,0.82 -1.445,1.133 -0.527,0.312 -1.093,0.546 -1.699,0.722 -0.625,0.176 -1.25,0.254 -1.934,0.254 -0.644,0 -1.269,-0.078 -1.875,-0.254 -0.625,-0.176 -1.191,-0.41 -1.718,-0.722 -0.547,-0.313 -1.015,-0.684 -1.464,-1.133 -0.449,-0.43 -0.82,-0.918 -1.153,-1.465 -0.313,-0.527 -0.567,-1.114 -0.743,-1.719 -0.174,-0.625 -0.252,-1.27 -0.252,-1.933 0,-0.664 0.078,-1.289 0.252,-1.895 0.176,-0.605 0.43,-1.172 0.743,-1.699 0.333,-0.527 0.704,-0.996 1.153,-1.445 0.449,-0.43 0.917,-0.801 1.464,-1.113 0.527,-0.313 1.093,-0.547 1.718,-0.723 0.606,-0.176 1.231,-0.254 1.875,-0.254 0.684,0 1.309,0.078 1.934,0.254 m -1.074,8.203 c 0.254,-0.117 0.468,-0.274 0.663,-0.469 0.176,-0.215 0.333,-0.449 0.43,-0.722 0.119,-0.254 0.157,-0.548 0.157,-0.84 0,-0.313 -0.038,-0.586 -0.157,-0.86 C -6.639,2.714 -6.796,2.48 -6.972,2.265 -7.167,2.07 -7.381,1.914 -7.635,1.796 -7.908,1.679 -8.182,1.621 -8.495,1.621 c -0.292,0 -0.565,0.058 -0.82,0.175 -0.273,0.118 -0.487,0.274 -0.682,0.469 -0.176,0.215 -0.333,0.449 -0.43,0.703 -0.119,0.274 -0.157,0.547 -0.157,0.86 0,0.292 0.038,0.586 0.157,0.84 0.097,0.273 0.254,0.507 0.43,0.722 0.195,0.195 0.409,0.352 0.682,0.469 0.255,0.117 0.528,0.176 0.82,0.176 0.313,0 0.587,-0.059 0.86,-0.176 m 0.937,4.629 c 0.587,-0.176 1.114,-0.43 1.582,-0.743 0.49,-0.331 0.917,-0.702 1.309,-1.152 0.39,-0.449 0.703,-0.937 0.958,-1.445 0,-0.117 -0.059,-0.215 -0.138,-0.312 C -3.065,6.738 -3.162,6.679 -3.26,6.62 l -10.449,0 c -0.098,0.059 -0.195,0.118 -0.273,0.216 -0.079,0.097 -0.117,0.195 -0.117,0.312 0.252,0.508 0.566,0.996 0.937,1.445 0.39,0.45 0.819,0.821 1.309,1.152 0.468,0.313 0.996,0.567 1.581,0.743 0.568,0.175 1.152,0.273 1.777,0.273 0.625,0 1.231,-0.098 1.797,-0.273 M -9.764,0.664 c 0.392,-0.157 0.82,-0.235 1.269,-0.235 0.47,0 0.899,0.078 1.29,0.235 0.39,0.175 0.761,0.351 1.112,0.566 l 1.017,-0.801 0,-0.097 0.176,-0.235 0.077,-0.253 c 0,-0.079 -0.02,-0.137 -0.057,-0.235 l -0.06,-0.02 0.06,-0.077 c -0.547,-0.352 -1.134,-0.626 -1.719,-0.821 -0.606,-0.196 -1.231,-0.293 -1.896,-0.293 -0.644,0 -1.288,0.097 -1.913,0.293 -0.625,0.195 -1.191,0.469 -1.699,0.821 l 0,0.097 c -0.04,0.117 -0.059,0.215 -0.059,0.293 l 0.059,0.215 c 0.038,0.078 0.116,0.137 0.214,0.215 l 0,0.097 0.996,0.801 c 0.351,-0.215 0.724,-0.391 1.133,-0.566 m 5.254,2.832 c 0.097,0.332 0.157,0.664 0.157,1.015 l 0,0.41 1.504,0 c 0.135,0 0.252,-0.039 0.352,-0.137 0.097,-0.097 0.135,-0.214 0.135,-0.351 0,-0.469 -0.059,-0.918 -0.156,-1.367 -0.098,-0.43 -0.255,-0.859 -0.45,-1.25 l -0.097,0 C -3.122,1.66 -3.201,1.562 -3.298,1.503 -3.398,1.445 -3.514,1.406 -3.671,1.406 L -4.88,2.52 c 0.156,0.312 0.291,0.624 0.37,0.976 m -8.087,1.015 c 0,-0.351 0.041,-0.683 0.138,-1.015 0.097,-0.332 0.214,-0.626 0.352,-0.879 l -1.191,-1.211 c -0.156,0 -0.275,0.039 -0.373,0.097 -0.097,0.059 -0.176,0.157 -0.233,0.313 l -0.097,0 c -0.216,0.391 -0.352,0.82 -0.45,1.25 -0.097,0.449 -0.156,0.898 -0.156,1.367 0,0.137 0.038,0.254 0.135,0.351 0.1,0.098 0.217,0.137 0.373,0.137 l 1.502,0"
             style="fill:#f5a615;fill-opacity:1;fill-rule:nonzero;stroke:none"
             id="path2310" />
        </g>
      </g>
    </g>
  </g>
</svg>
