<?xml version="1.0" encoding="UTF-8" standalone="no"?>
<svg
   xmlns:dc="http://purl.org/dc/elements/1.1/"
   xmlns:cc="http://creativecommons.org/ns#"
   xmlns:rdf="http://www.w3.org/1999/02/22-rdf-syntax-ns#"
   xmlns:svg="http://www.w3.org/2000/svg"
   xmlns="http://www.w3.org/2000/svg"
   id="svg2550"
   height="80"
   width="100"
   version="1.1">
  <metadata
     id="metadata9">
    <rdf:RDF>
      <cc:Work
         rdf:about="">
        <dc:format>image/svg+xml</dc:format>
        <dc:type
           rdf:resource="http://purl.org/dc/dcmitype/StillImage" />
        <dc:title></dc:title>
      </cc:Work>
    </rdf:RDF>
  </metadata>
  <defs
     id="defs2553" />
  <path
     id="path2000"
     style="fill:#f7ae14;fill-opacity:1;fill-rule:nonzero;stroke:none"
     d="m 93.628761,42.01493 -10.329521,8.09819 -0.87522,0.726144 -0.870412,-1.158945 c -0.629965,-0.779042 -1.312829,-1.457097 -1.942795,-2.038974 -0.629967,-0.533788 -1.452289,-0.827132 -2.567954,-0.827132 l -8.636787,0 0,6.208292 c 0,0.9185 -0.144268,1.697543 -0.480891,2.428496 -0.293343,0.774233 -0.730952,1.404199 -1.269549,1.937988 -0.528981,0.577067 -1.158946,0.966588 -1.88509,1.259932 -0.726144,0.341431 -1.500377,0.485698 -2.284228,0.485698 l -39.182931,0 c -0.822322,0 -1.601364,-0.144267 -2.332318,-0.485698 -0.678054,-0.293344 -1.303211,-0.682865 -1.837,-1.259932 -0.538597,-0.533789 -0.976207,-1.163755 -1.269551,-1.937988 -0.288533,-0.730953 -0.432801,-1.509996 -0.432801,-2.428496 l 0,-6.208292 -11.0604736,0 0,-14.013138 11.0604736,0 0,-5.972657 c 0,-0.822322 0.144268,-1.548466 0.432801,-2.3227 0.293344,-0.678055 0.730954,-1.312829 1.269551,-1.846618 0.533789,-0.528979 1.158946,-0.966588 1.837,-1.303212 0.730954,-0.293343 1.509996,-0.43761 2.332318,-0.490508 l 39.182931,0 c 0.783851,0.05289 1.558084,0.197165 2.284228,0.490508 0.726144,0.336624 1.356109,0.774233 1.88509,1.303212 0.538597,0.533789 0.976206,1.168563 1.269549,1.846618 0.336623,0.774234 0.480891,1.500378 0.480891,2.3227 l 0,5.972657 10.574774,0 c 1.79372,0 3.395085,0.240444 4.751195,0.721334 1.360919,0.490509 2.572763,1.115666 3.63553,1.846618 1.072385,0.779042 2.043783,1.644645 2.866105,2.567954 0.87522,1.024296 1.702352,1.990886 2.524674,2.962284 l 0.870411,1.115665 z m -10.719042,5.770681 c 0.288534,-0.197164 0.822322,-0.629965 1.601364,-1.211843 0.726145,-0.581877 1.452289,-1.211843 2.274611,-1.841808 0.779042,-0.634776 1.509995,-1.211844 2.236139,-1.79853 0.726145,-0.533789 1.259933,-0.96659 1.596556,-1.207035 -0.726144,-0.923308 -1.500378,-1.798528 -2.226522,-2.620851 -0.730953,-0.774233 -1.558084,-1.553276 -2.428495,-2.183241 -0.9185,-0.581878 -1.942797,-1.067577 -3.053653,-1.457098 -1.115665,-0.336623 -2.375597,-0.533787 -3.832695,-0.577067 l -12.806105,0 0,-8.203987 c 0,-0.96659 -0.336623,-1.788912 -1.110856,-2.567954 -0.678056,-0.726143 -1.553276,-1.067576 -2.62566,-1.115664 l -39.332007,0 c -0.96659,0.04808 -1.84181,0.389521 -2.572762,1.115664 -0.721335,0.779042 -1.207035,1.601364 -1.207035,2.567954 l 0,8.203987 -11.0123846,0 0,2.563144 12.8012966,0 0,-11.882796 42.929065,0 0,11.882796 14.88836,0 c 1.697542,0.05289 3.058461,0.389521 4.025051,1.072386 1.067575,0.678054 1.942795,1.452287 2.66894,2.327507 l 0.822322,0.827132 -3.779797,2.952665 -0.726145,-0.726144 C 81.50552,43.274861 81.015012,42.837252 80.6303,42.548717 80.187881,42.308273 79.658901,42.159196 79.028936,42.111108 l -14.88836,0 0,11.930885 -42.929065,0 0,-11.930885 -12.6041327,0 0,2.572762 10.9113997,0 0,8.535801 c 0,1.062767 0.389521,1.986076 1.110856,2.717029 0.730952,0.726145 1.606172,1.115666 2.572762,1.062768 l 39.332007,0 c 1.072384,0.05289 1.947604,-0.336623 2.62566,-1.062768 0.774233,-0.730953 1.110856,-1.654262 1.110856,-2.717029 l 0,-8.535801 10.868117,0 c 0.726145,0.0481 1.404201,0.139458 1.937988,0.288534 0.581877,0.197165 1.110857,0.43761 1.553276,0.678056 0.432801,0.341431 0.87522,0.629965 1.211843,1.019486 l 1.067576,1.115665 z m -20.904296,-20.081973 -38.653951,0 0,24.203202 38.653951,0 0,-24.203202 z M 29.266421,39.783599 c 0,-1.067576 0.389521,-2.034165 1.115665,-2.813207 0.774234,-0.779043 1.702352,-1.163754 2.818017,-1.216652 1.110856,0.05289 2.029356,0.437609 2.76031,1.216652 0.779042,0.779042 1.163753,1.745631 1.163753,2.813207 0,1.163754 -0.384711,2.135153 -1.163753,2.909386 -0.730954,0.774234 -1.649454,1.163755 -2.76031,1.115665 -1.115665,0.0481 -2.043783,-0.341431 -2.818017,-1.115665 -0.726144,-0.774233 -1.115665,-1.745632 -1.115665,-2.909386 m 4.270305,-1.452288 c -0.43761,0 -0.827131,0.192357 -1.163755,0.528979 -0.341431,0.341432 -0.538596,0.726144 -0.538596,1.163755 0,0.437609 0.197165,0.87522 0.538596,1.211843 0.336624,0.341431 0.726145,0.490507 1.163755,0.490507 0.485699,0 0.870411,-0.149076 1.207034,-0.490507 0.293343,-0.336623 0.437611,-0.774234 0.437611,-1.211843 0,-0.437611 -0.144268,-0.822323 -0.437611,-1.163755 -0.336623,-0.336622 -0.721335,-0.528979 -1.207034,-0.528979 m -5.289792,13.13792 c -1.067577,0.05289 -2.034165,-0.341433 -2.861297,-1.115666 -0.774232,-0.769424 -1.163753,-1.740822 -1.163753,-2.909385 0,-1.110856 0.389521,-2.034166 1.163753,-2.861297 0.827132,-0.774233 1.79372,-1.163754 2.861297,-1.163754 1.120474,0 2.087064,0.389521 2.861296,1.163754 0.822322,0.827131 1.163755,1.750441 1.163755,2.861297 0,1.168563 -0.341433,2.139961 -1.163755,2.909385 -0.774232,0.774233 -1.740822,1.168563 -2.861296,1.115666 m -0.04809,-5.958229 c -0.437609,0.0481 -0.87522,0.240444 -1.163753,0.625157 -0.336624,0.389521 -0.480891,0.822322 -0.480891,1.308021 0,0.538597 0.144267,0.971398 0.480891,1.360919 0.288533,0.389521 0.726144,0.581877 1.163753,0.533788 0.485699,0.0481 0.87522,-0.144267 1.216653,-0.533788 0.336623,-0.389521 0.485699,-0.822322 0.485699,-1.360919 0,-0.485699 -0.149076,-0.9185 -0.485699,-1.308021 -0.341433,-0.384713 -0.730954,-0.577069 -1.216653,-0.625157 m 19.788631,5.958229 c -1.067577,0.05289 -1.942797,-0.341433 -2.717029,-1.115666 -0.726145,-0.769424 -1.115666,-1.740822 -1.115666,-2.909385 0,-1.110856 0.389521,-2.034166 1.115666,-2.861297 0.774232,-0.774233 1.649452,-1.163754 2.717029,-1.163754 1.062767,0 1.937988,0.389521 2.71703,1.163754 0.726143,0.827131 1.110856,1.750441 1.110856,2.861297 0,1.168563 -0.384713,2.139961 -1.110856,2.909385 -0.779042,0.774233 -1.654263,1.168563 -2.71703,1.115666 m -0.09618,-5.958229 c -0.485699,0.0481 -0.9185,0.240444 -1.211843,0.625157 -0.341433,0.389521 -0.485699,0.822322 -0.485699,1.308021 0,0.538597 0.144266,0.971398 0.485699,1.360919 0.293343,0.389521 0.726144,0.581877 1.211843,0.533788 0.437609,0.0481 0.87041,-0.144267 1.158944,-0.533788 0.346241,-0.389521 0.490508,-0.822322 0.490508,-1.360919 0,-0.485699 -0.144267,-0.9185 -0.490508,-1.308021 -0.288534,-0.384713 -0.721335,-0.577069 -1.158944,-0.625157 M 39.01887,39.783599 c 0,-1.067576 0.384711,-2.034165 1.115665,-2.813207 0.774233,-0.779043 1.692733,-1.163754 2.808398,-1.216652 1.115666,0.05289 2.038975,0.437609 2.76031,1.216652 0.779042,0.779042 1.168563,1.745631 1.168563,2.813207 0,1.163754 -0.389521,2.135153 -1.168563,2.909386 -0.721335,0.774234 -1.644644,1.163755 -2.76031,1.115665 -1.115665,0.0481 -2.034165,-0.341431 -2.808398,-1.115665 -0.730954,-0.774233 -1.115665,-1.745632 -1.115665,-2.909386 m 4.073139,-1.452288 c -0.533787,0 -0.976206,0.192357 -1.312829,0.528979 -0.389521,0.341432 -0.581878,0.726144 -0.581878,1.163755 0,0.437609 0.192357,0.87522 0.581878,1.211843 0.336623,0.341431 0.779042,0.490507 1.312829,0.490507 0.533789,0 0.96659,-0.149076 1.356111,-0.490507 0.384711,-0.336623 0.581877,-0.774234 0.581877,-1.211843 0,-0.437611 -0.197166,-0.822323 -0.581877,-1.163755 -0.389521,-0.336622 -0.822322,-0.528979 -1.356111,-0.528979 M 28.24693,28.093159 c 1.120474,0.0529 2.087064,0.43761 2.861296,1.211844 0.822322,0.774232 1.163755,1.74563 1.163755,2.861296 0,1.163755 -0.341433,2.087063 -1.163755,2.866105 -0.774232,0.822322 -1.740822,1.158945 -2.861296,1.158945 -1.067577,0 -2.034165,-0.336623 -2.861297,-1.158945 -0.774232,-0.779042 -1.163754,-1.70235 -1.163754,-2.866105 0,-1.115666 0.389522,-2.087064 1.163754,-2.861296 0.827132,-0.774234 1.79372,-1.158946 2.861297,-1.211844 m -0.04809,5.967847 c 0.485699,0.0481 0.87522,-0.144267 1.216653,-0.586686 0.336623,-0.336624 0.485699,-0.774233 0.485699,-1.308021 0,-0.48089 -0.149076,-0.9185 -0.485699,-1.308022 -0.341433,-0.389521 -0.730954,-0.581876 -1.216653,-0.634774 -0.437609,0.05289 -0.87522,0.245253 -1.163753,0.634774 -0.336624,0.389522 -0.480891,0.827132 -0.480891,1.308022 0,0.533788 0.144267,0.971397 0.480891,1.308021 0.288533,0.442419 0.726144,0.634776 1.163753,0.586686 m 10.040987,17.408225 c -1.067575,0.05289 -1.986077,-0.341433 -2.717029,-1.115666 -0.726145,-0.769424 -1.115666,-1.740822 -1.115666,-2.909385 0,-1.110856 0.389521,-2.034166 1.115666,-2.861297 0.730952,-0.774233 1.649454,-1.163754 2.717029,-1.163754 1.067576,0 1.942796,0.389521 2.71703,1.163754 0.726144,0.827131 1.110856,1.750441 1.110856,2.861297 0,1.168563 -0.384712,2.139961 -1.110856,2.909385 -0.774234,0.774233 -1.649454,1.168563 -2.71703,1.115666 m -0.197165,-5.958229 c -0.432801,0.0481 -0.87041,0.240444 -1.207034,0.625157 -0.288535,0.389521 -0.490508,0.822322 -0.490508,1.308021 0,0.538597 0.201973,0.971398 0.490508,1.360919 0.336624,0.389521 0.774233,0.581877 1.207034,0.533788 0.437611,0.0481 0.827132,-0.144267 1.168563,-0.533788 0.336624,-0.389521 0.480891,-0.822322 0.480891,-1.360919 0,-0.485699 -0.144267,-0.9185 -0.480891,-1.308021 -0.341431,-0.384713 -0.730952,-0.577069 -1.168563,-0.625157 m 0.19716,-17.417843 c 1.067576,0.0529 1.942796,0.43761 2.71703,1.211844 0.726144,0.774232 1.110856,1.74563 1.110856,2.861296 0,1.163755 -0.384712,2.087063 -1.110856,2.866105 -0.774234,0.822322 -1.649454,1.158945 -2.71703,1.158945 -1.067575,0 -1.986077,-0.336623 -2.717029,-1.158945 -0.726145,-0.779042 -1.115666,-1.70235 -1.115666,-2.866105 0,-1.115666 0.389521,-2.087064 1.115666,-2.861296 0.730952,-0.774234 1.649454,-1.158946 2.717029,-1.211844 m -0.197165,5.967847 c 0.437611,0.0481 0.827132,-0.144267 1.168563,-0.586686 0.336624,-0.336624 0.480891,-0.774233 0.480891,-1.308021 0,-0.48089 -0.144267,-0.9185 -0.480891,-1.308022 -0.341431,-0.389521 -0.730952,-0.581876 -1.168563,-0.634774 -0.432801,0.05289 -0.87041,0.245253 -1.207034,0.634774 -0.288535,0.389522 -0.490508,0.827132 -0.490508,1.308022 0,0.533788 0.201973,0.971397 0.490508,1.308021 0.336624,0.442419 0.774233,0.634776 1.207034,0.586686 m 9.944809,-5.967847 c 1.062767,0.0529 1.937988,0.43761 2.71703,1.211844 0.726143,0.774232 1.110856,1.74563 1.110856,2.861296 0,1.163755 -0.384713,2.087063 -1.110856,2.866105 -0.779042,0.822322 -1.654263,1.158945 -2.71703,1.158945 -1.067577,0 -1.942797,-0.336623 -2.717029,-1.158945 -0.726145,-0.779042 -1.115666,-1.70235 -1.115666,-2.866105 0,-1.115666 0.389521,-2.087064 1.115666,-2.861296 0.774232,-0.774234 1.649452,-1.158946 2.717029,-1.211844 m -0.09618,5.967847 c 0.437609,0.0481 0.87041,-0.144267 1.158944,-0.586686 0.346241,-0.336624 0.490508,-0.774233 0.490508,-1.308021 0,-0.48089 -0.144267,-0.9185 -0.490508,-1.308022 -0.288534,-0.389521 -0.721335,-0.581876 -1.158944,-0.634774 -0.485699,0.05289 -0.9185,0.245253 -1.211844,0.634774 -0.341432,0.389522 -0.485698,0.827132 -0.485698,1.308022 0,0.533788 0.144266,0.971397 0.485698,1.308021 0.293344,0.442419 0.726145,0.634776 1.211844,0.586686 m 9.896719,17.408225 c -1.072385,0.05289 -1.942797,-0.341433 -2.717029,-1.115666 -0.730954,-0.769424 -1.115666,-1.740822 -1.115666,-2.909385 0,-1.110856 0.384712,-2.034166 1.115666,-2.861297 0.774232,-0.774233 1.644644,-1.163754 2.717029,-1.163754 1.062767,0 1.933178,0.389521 2.712221,1.163754 0.726143,0.827131 1.120473,1.750441 1.120473,2.861297 0,1.168563 -0.39433,2.139961 -1.120473,2.909385 -0.779043,0.774233 -1.649454,1.168563 -2.712221,1.115666 m -0.09618,-5.958229 c -0.437611,0.0481 -0.827132,0.240444 -1.168563,0.625157 -0.341433,0.389521 -0.485699,0.822322 -0.485699,1.308021 0,0.538597 0.144266,0.971398 0.485699,1.360919 0.341431,0.389521 0.730952,0.581877 1.168563,0.533788 0.432801,0.0481 0.87041,-0.144267 1.158944,-0.533788 0.341433,-0.389521 0.533789,-0.822322 0.533789,-1.360919 0,-0.485699 -0.192356,-0.9185 -0.533789,-1.308021 -0.288534,-0.384713 -0.726143,-0.577069 -1.158944,-0.625157 m 0.09618,-9.319653 c -1.072385,0 -1.942797,-0.336623 -2.717029,-1.158945 -0.730954,-0.779042 -1.115666,-1.70235 -1.115666,-2.866105 0,-1.115666 0.384712,-2.087064 1.115666,-2.861296 0.774232,-0.774234 1.644644,-1.158946 2.717029,-1.211844 1.062767,0.0529 1.933178,0.43761 2.712221,1.211844 0.726143,0.774232 1.120473,1.74563 1.120473,2.861296 0,1.163755 -0.39433,2.087063 -1.120473,2.866105 -0.779043,0.822322 -1.649454,1.158945 -2.712221,1.158945 m -0.09618,-5.967846 c -0.437611,0.05289 -0.827132,0.245253 -1.168563,0.634774 -0.341433,0.389522 -0.485699,0.827132 -0.485699,1.308022 0,0.533788 0.144266,0.971397 0.485699,1.308021 0.341431,0.442419 0.730952,0.634776 1.168563,0.586686 0.432801,0.0481 0.87041,-0.144267 1.158944,-0.586686 0.341433,-0.336624 0.533789,-0.774233 0.533789,-1.308021 0,-0.48089 -0.192356,-0.9185 -0.533789,-1.308022 -0.288534,-0.389521 -0.726143,-0.581876 -1.158944,-0.634774 m -8.930131,9.560096 c 0,-1.067576 0.389521,-2.034165 1.163755,-2.813207 0.779042,-0.779043 1.70235,-1.163754 2.765118,-1.216652 1.120473,0.05289 2.038973,0.437609 2.765118,1.216652 0.779042,0.779042 1.168563,1.745631 1.168563,2.813207 0,1.163754 -0.389521,2.135153 -1.168563,2.909386 -0.726145,0.774234 -1.644645,1.163755 -2.765118,1.115665 -1.062768,0.0481 -1.986076,-0.341431 -2.765118,-1.115665 -0.774234,-0.774233 -1.163755,-1.745632 -1.163755,-2.909386 m 3.928873,-1.452288 c -0.480891,0 -0.87522,0.192357 -1.163754,0.528979 -0.336623,0.341432 -0.480891,0.726144 -0.480891,1.163755 0,0.437609 0.144268,0.87522 0.480891,1.211843 0.288534,0.341431 0.682863,0.490507 1.163754,0.490507 0.437609,0 0.82713,-0.149076 1.168563,-0.490507 0.341431,-0.336623 0.533788,-0.774234 0.533788,-1.211843 0,-0.437611 -0.192357,-0.822323 -0.533788,-1.163755 -0.341433,-0.336622 -0.730954,-0.528979 -1.168563,-0.528979" />
</svg>
