<?xml version="1.0" encoding="UTF-8" standalone="no"?>
<svg
   xmlns:dc="http://purl.org/dc/elements/1.1/"
   xmlns:cc="http://creativecommons.org/ns#"
   xmlns:rdf="http://www.w3.org/1999/02/22-rdf-syntax-ns#"
   xmlns:svg="http://www.w3.org/2000/svg"
   xmlns="http://www.w3.org/2000/svg"
   id="svg5294"
   height="80"
   width="100"
   version="1.1">
  <metadata
     id="metadata11">
    <rdf:RDF>
      <cc:Work
         rdf:about="">
        <dc:format>image/svg+xml</dc:format>
        <dc:type
           rdf:resource="http://purl.org/dc/dcmitype/StillImage" />
        <dc:title></dc:title>
      </cc:Work>
    </rdf:RDF>
  </metadata>
  <defs
     id="defs5297" />
  <g
     id="g5842"
     transform="matrix(0.9068416,0,0,0.9068416,3.138023,-0.3345064)">
    <path
       style="fill:#f7ae14;fill-opacity:1;fill-rule:evenodd;stroke:#f7ae14;stroke-width:1px;stroke-linecap:butt;stroke-linejoin:miter;stroke-opacity:1"
       id="path5840"
       d="M 14.623648,40.542791 L 25.302574,58.731408 C 27.44005,57.58554 29.476771,56.777202 31.595715,52.885847 C 34.942074,66.22744 43.985135,57.185957 44.485789,55.134148 C 48.155109,63.613624 54.589357,60.810984 57.623375,55.057681 C 58.582201,61.404919 66.90309,62.4343 70.178237,53.947295 C 72.007819,57.414848 74.031845,59.035187 76.370571,57.665874 L 86.696734,41.027624 C 62.232605,25.102427 38.322934,25.370675 14.623648,40.542791 z M 9.5588239,40.066176 L 31.926471,76.867647 C 44.221057,69.301539 55.673218,68.425041 69.397059,76.963235 L 92.051471,39.683824 C 63.534227,20.475926 36.451068,20.433404 9.5588239,40.066176 z" />
    <path
       style="fill:none;fill-rule:evenodd;stroke:#f7ae14;stroke-width:5;stroke-linecap:butt;stroke-linejoin:miter;stroke-miterlimit:4;stroke-dasharray:5, 10;stroke-dashoffset:44.9999982;stroke-opacity:1"
       id="path5838"
       d="M 50.280721,82.888397 L 50.373691,32.516015" />
    <path
       style="opacity:1;fill:none;fill-opacity:1;fill-rule:evenodd;stroke:#f7ae14;stroke-width:6;stroke-linecap:square;stroke-linejoin:round;marker:none;marker-start:none;marker-mid:none;marker-end:none;stroke-miterlimit:4;stroke-dasharray:6.00000006, 12.00000013000000000;stroke-dashoffset:3.00000003;stroke-opacity:1;visibility:visible;display:inline;overflow:visible;enable-background:accumulate"
       id="path5305"
       transform="matrix(1.0039232,0,0,1.063987,0.1889797,0.3087673)"
       d="M 26.249318,19.378447 A 11.852942,11.183824 0 0 1 49.797027,16.822135" />
    <path
       style="opacity:1;fill:none;fill-opacity:1;fill-rule:evenodd;stroke:#f7ae14;stroke-width:6;stroke-linecap:square;stroke-linejoin:round;marker:none;marker-start:none;marker-mid:none;marker-end:none;stroke-miterlimit:4;stroke-dasharray:6.00000006, 12.00000013000000000;stroke-dashoffset:3.00000003;stroke-opacity:1;visibility:visible;display:inline;overflow:visible;enable-background:accumulate"
       id="path5836"
       transform="matrix(-1.0039232,0,0,1.063987,101.03982,0.1777984)"
       d="M 26.249318,19.378447 A 11.852942,11.183824 0 0 1 49.797027,16.822135" />
  </g>
</svg>
