<?xml version="1.0" encoding="UTF-8" standalone="no"?>
<svg
   xmlns:dc="http://purl.org/dc/elements/1.1/"
   xmlns:cc="http://creativecommons.org/ns#"
   xmlns:rdf="http://www.w3.org/1999/02/22-rdf-syntax-ns#"
   xmlns:svg="http://www.w3.org/2000/svg"
   xmlns="http://www.w3.org/2000/svg"
   id="svg8555"
   height="80"
   width="100"
   version="1.1">
  <metadata
     id="metadata9">
    <rdf:RDF>
      <cc:Work
         rdf:about="">
        <dc:format>image/svg+xml</dc:format>
        <dc:type
           rdf:resource="http://purl.org/dc/dcmitype/StillImage" />
        <dc:title></dc:title>
      </cc:Work>
    </rdf:RDF>
  </metadata>
  <defs
     id="defs8558" />
  <g
     id="g9099"
     transform="matrix(0.7476464,0,0,0.6995342,1.1130898,12.112827)">
    <path
       style="fill:none;fill-rule:evenodd;stroke:#f7ae14;stroke-width:6;stroke-linecap:round;stroke-linejoin:round;stroke-miterlimit:4;stroke-dasharray:none;stroke-opacity:1"
       id="path8566"
       d="M 40.625,55.625 C 40.878732,74.271666 22.986388,70.754192 23.180147,55.625 C 11.660061,56.72261 5.910948,55.045988 14.099264,39.61397 C 17.251418,35.708902 28.407192,36.482096 35.128676,35.55147 L 60.9375,12.132353 L 88.419117,12.132353 L 105.14706,33.400735 C 119.91972,30.829382 116.44843,43.358708 116.85662,54.908088" />
    <path
       style="fill:#f7ae14;fill-opacity:1;fill-rule:evenodd;stroke:none;stroke-width:1px;stroke-linecap:butt;stroke-linejoin:miter;stroke-opacity:1"
       id="path8568"
       d="M 84.216631,50.971078 C 93.728168,37.482013 106.65692,45.07091 106.90572,57.403363 C 107.18089,71.04326 91.169955,76.721578 85.815187,64.949098 L 81.121495,64.957907 L 80.997601,64.024405 L 77.968983,64.058055 L 77.947684,61.096618 L 66.314339,61.140066 L 64.677466,63.029515 L 63.168479,62.917848 L 61.808893,60.911345 L 59.503676,60.886599 L 55.834629,64.83386 L 49.606898,57.775735 L 55.286695,50.971078 L 84.216631,50.971078 z M 100.09156,62.079323 C 98.275132,62.188917 96.804761,59.663364 96.824308,57.526712 C 96.844347,55.336305 98.208388,52.721133 100.53428,52.837585 C 102.55762,52.838274 103.65028,55.322515 103.69825,57.456467 C 103.75813,60.179785 101.86033,62.350693 100.09156,62.079323 z" />
  </g>
</svg>
