<?xml version="1.0" encoding="UTF-8" standalone="no"?>
<svg
   xmlns:dc="http://purl.org/dc/elements/1.1/"
   xmlns:cc="http://creativecommons.org/ns#"
   xmlns:rdf="http://www.w3.org/1999/02/22-rdf-syntax-ns#"
   xmlns:svg="http://www.w3.org/2000/svg"
   xmlns="http://www.w3.org/2000/svg"
   id="svg4990"
   height="80"
   width="100"
   version="1.1">
  <metadata
     id="metadata16">
    <rdf:RDF>
      <cc:Work
         rdf:about="">
        <dc:format>image/svg+xml</dc:format>
        <dc:type
           rdf:resource="http://purl.org/dc/dcmitype/StillImage" />
        <dc:title></dc:title>
      </cc:Work>
    </rdf:RDF>
  </metadata>
  <defs
     id="defs4993">
    <clipPath
       id="clipPath1226"
       clipPathUnits="userSpaceOnUse">
      <path
         id="path1228"
         d="m 113.116,87.659 20.379,0 0,18.359 -20.379,0 0,-18.359 z" />
    </clipPath>
  </defs>
  <g
     id="g1222"
     transform="matrix(5.6479496,0,0,-5.6479496,-646.45788,587.53366)">
    <g
       clip-path="url(#clipPath1226)"
       id="g1224">
      <g
         transform="translate(123.1591,91.901794)"
         id="g1230">
        <path
           id="path1232"
           style="fill:#f7ae14;fill-opacity:1;fill-rule:nonzero;stroke:none"
           d="m 0,0 c -1.348,0 -2.609,0.521 -3.557,1.473 -0.943,0.954 -1.459,2.22 -1.45,3.564 0.019,2.785 2.298,5.048 5.083,5.048 1.346,0 2.609,-0.523 3.553,-1.474 C 4.575,7.657 5.09,6.392 5.082,5.046 5.059,2.265 2.782,0 0,0 m 0.076,11.166 c -3.377,0 -6.14,-2.745 -6.166,-6.12 -0.013,-1.637 0.617,-3.177 1.767,-4.336 1.149,-1.156 2.684,-1.792 4.323,-1.792 3.376,0 6.14,2.745 6.164,6.119 0.008,1.639 -0.62,3.178 -1.767,4.333 -1.15,1.159 -2.685,1.796 -4.321,1.796" />
      </g>
      <g
         transform="translate(116.3864,98.267304)"
         id="g1234">
        <path
           id="path1236"
           style="fill:#f7ae14;fill-opacity:1;fill-rule:nonzero;stroke:none"
           d="m 0,0 -1.465,0.358 c -0.28,-1.141 -0.339,-2.38 -0.055,-3.636 l 1.476,0.419 C -0.259,-1.873 -0.212,-0.902 0,0" />
      </g>
      <g
         transform="translate(115.07651,94.248505)"
         id="g1238">
        <path
           id="path1240"
           style="fill:#f7ae14;fill-opacity:1;fill-rule:nonzero;stroke:none"
           d="m 0,0 c 0.298,-0.875 0.765,-1.75 1.474,-2.594 l 1.189,0.945 C 2.101,-0.973 1.72,-0.278 1.474,0.418" />
      </g>
      <g
         transform="translate(116.59821,99.0103)"
         id="g1242">
        <path
           id="path1244"
           style="fill:#f7ae14;fill-opacity:1;fill-rule:nonzero;stroke:none"
           d="M 0,0 C 0.317,0.913 0.789,1.725 1.301,2.358 L 0.149,3.31 C -0.491,2.515 -1.076,1.498 -1.461,0.356" />
      </g>
      <g
         transform="translate(130.2383,98.267304)"
         id="g1246">
        <path
           id="path1248"
           style="fill:#f7ae14;fill-opacity:1;fill-rule:nonzero;stroke:none"
           d="m 0,0 1.462,0.358 c 0.28,-1.141 0.342,-2.38 0.057,-3.636 L 0.043,-2.859 C 0.258,-1.873 0.21,-0.902 0,0" />
      </g>
      <g
         transform="translate(131.5448,94.248505)"
         id="g1250">
        <path
           id="path1252"
           style="fill:#f7ae14;fill-opacity:1;fill-rule:nonzero;stroke:none"
           d="m 0,0 c -0.299,-0.875 -0.766,-1.75 -1.473,-2.594 l -1.189,0.945 c 0.562,0.676 0.94,1.371 1.188,2.067" />
      </g>
      <g
         transform="translate(130.0224,99.0103)"
         id="g1254">
        <path
           id="path1256"
           style="fill:#f7ae14;fill-opacity:1;fill-rule:nonzero;stroke:none"
           d="m 0,0 c -0.316,0.913 -0.785,1.725 -1.299,2.358 l 1.15,0.952 C 0.493,2.515 1.077,1.498 1.462,0.356" />
      </g>
    </g>
  </g>
</svg>
