<?xml version="1.0" encoding="UTF-8" standalone="no"?>
<svg
   xmlns:dc="http://purl.org/dc/elements/1.1/"
   xmlns:cc="http://creativecommons.org/ns#"
   xmlns:rdf="http://www.w3.org/1999/02/22-rdf-syntax-ns#"
   xmlns:svg="http://www.w3.org/2000/svg"
   xmlns="http://www.w3.org/2000/svg"
   id="svg2550"
   height="80"
   width="100"
   version="1.1">
  <metadata
     id="metadata9">
    <rdf:RDF>
      <cc:Work
         rdf:about="">
        <dc:format>image/svg+xml</dc:format>
        <dc:type
           rdf:resource="http://purl.org/dc/dcmitype/StillImage" />
        <dc:title></dc:title>
      </cc:Work>
    </rdf:RDF>
  </metadata>
  <defs
     id="defs2553">
    <clipPath
       id="clipPath2304"
       clipPathUnits="userSpaceOnUse">
      <path
         id="path2306"
         d="m 364.48,218.152 19.373,0 0,18.358 -19.373,0 0,-18.358 z" />
    </clipPath>
    <clipPath
       id="clipPath356"
       clipPathUnits="userSpaceOnUse">
      <path
         id="path358"
         d="m 30.757,108.259 17.852,0 0,17.851 -17.852,0 0,-17.851 z" />
    </clipPath>
    <clipPath
       id="clipPath1144"
       clipPathUnits="userSpaceOnUse">
      <path
         id="path1146"
         d="m 111.968,147.392 22.678,0 0,11.031 -22.678,0 0,-11.031 z" />
    </clipPath>
  </defs>
  <g
     id="g1140"
     transform="matrix(4.0375227,0,0,-4.0375227,-447.93899,657.33399)">
    <g
       clip-path="url(#clipPath1144)"
       id="g1142">
      <g
         transform="translate(132.7713,155.50211)"
         id="g1148">
        <path
           id="path1150"
           style="fill:#f7ae14;fill-opacity:1;fill-rule:nonzero;stroke:none"
           d="m 0,0 0,0.26 -0.943,0 0,0.376 0.71,0 0,0.145 -3.051,0 0,-0.145 0.716,0 0,-0.376 -0.93,0 0,-0.26 L 0,0 Z m -0.382,1.127 -0.281,0.546 -2.174,0 -0.265,-0.546 2.72,0 z m -2.704,-1.501 0,-0.461 -0.928,0 0,1.501 -0.714,0 -0.132,0.033 -0.018,0.085 0.048,0.122 0.403,0.306 0.696,0 0.497,0.837 3.001,0 0.501,-0.837 0.696,0 L 1.361,0.906 1.41,0.784 1.394,0.699 1.278,0.666 l -0.712,0 0,-1.501 -0.948,0 0,0.461 -2.704,0 z m 3.389,-3.239 -0.159,0.075 -0.171,0.086 -0.162,0.093 -0.144,0.081 -0.154,0.089 -0.084,0.1 0.031,0.094 c 0.035,0.03 0.096,0.06 0.193,0.089 0.092,0.03 0.188,0.056 0.298,0.082 0.114,0.024 0.219,0.046 0.325,0.066 0.108,0.023 0.21,0.043 0.302,0.066 0.095,0.017 0.174,0.039 0.237,0.063 0.119,0.036 0.198,0.082 0.246,0.131 l 0.082,0.158 -0.025,0.167 -0.088,0.166 -0.137,0.182 -0.141,0.18 -0.158,0.194 -0.678,0 0.128,-0.152 0.139,-0.193 0.115,-0.208 0.056,-0.191 -0.026,-0.147 -0.145,-0.086 c -0.21,-0.04 -0.406,-0.08 -0.588,-0.122 -0.18,-0.043 -0.35,-0.079 -0.508,-0.117 l -0.228,-0.081 -0.156,-0.119 -0.032,-0.151 c 0.013,-0.056 0.071,-0.118 0.166,-0.184 0.09,-0.073 0.171,-0.132 0.245,-0.181 l 0.243,-0.141 c 0.087,-0.05 0.179,-0.099 0.285,-0.149 0.105,-0.052 0.231,-0.115 0.377,-0.19 l 0.811,0 -0.495,0.25 z m -3.787,0 -0.154,0.075 -0.171,0.086 -0.171,0.093 -0.152,0.081 -0.145,0.089 -0.079,0.1 0.026,0.094 c 0.031,0.03 0.091,0.06 0.184,0.089 0.096,0.03 0.202,0.056 0.31,0.082 0.11,0.024 0.219,0.046 0.326,0.066 0.108,0.023 0.21,0.043 0.303,0.066 0.095,0.017 0.172,0.039 0.235,0.063 0.119,0.036 0.203,0.082 0.251,0.131 l 0.082,0.158 -0.025,0.167 -0.089,0.166 -0.135,0.182 -0.141,0.18 -0.152,0.194 -0.68,0 0.123,-0.152 0.135,-0.193 0.114,-0.208 0.066,-0.191 -0.031,-0.147 -0.145,-0.086 c -0.21,-0.04 -0.402,-0.08 -0.586,-0.122 -0.185,-0.043 -0.354,-0.079 -0.512,-0.117 L -4.921,-2.748 -5.078,-2.867 -5.11,-3.018 c 0.013,-0.056 0.07,-0.118 0.167,-0.184 l 0.246,-0.181 0.24,-0.141 c 0.083,-0.05 0.18,-0.099 0.281,-0.149 0.105,-0.052 0.232,-0.115 0.375,-0.19 l 0.815,0" />
      </g>
      <g
         transform="translate(120.2674,154.4339)"
         id="g1152">
        <path
           id="path1154"
           style="fill:#f7ae14;fill-opacity:1;fill-rule:nonzero;stroke:none"
           d="m 0,0 0,0.397 -1.438,0 0,0.573 1.083,0 0,0.221 -4.653,0 0,-0.221 1.092,0 0,-0.573 -1.419,0 L -5.335,0 0,0 Z m -0.583,1.718 -0.428,0.833 -3.315,0 -0.405,-0.833 4.148,0 z m -4.123,-2.289 0,-0.702 -1.416,0 0,2.288 -1.088,0 c -0.106,-0.004 -0.169,0.016 -0.202,0.05 l -0.027,0.131 0.073,0.187 0.614,0.466 1.062,0 0.758,1.276 4.577,0 0.764,-1.276 1.062,0 L 2.076,1.383 2.151,1.196 2.126,1.065 C 2.105,1.031 2.044,1.011 1.95,1.015 l -1.086,0 0,-2.288 -1.447,0 0,0.702 -4.123,0 z M 0.462,-5.51 0.22,-5.395 C 0.128,-5.35 0.046,-5.31 -0.041,-5.264 l -0.247,0.142 -0.22,0.123 -0.235,0.135 -0.127,0.153 0.046,0.144 c 0.053,0.045 0.147,0.091 0.295,0.135 0.14,0.046 0.287,0.085 0.455,0.126 0.174,0.036 0.334,0.069 0.495,0.1 0.165,0.035 0.32,0.065 0.46,0.101 0.145,0.026 0.266,0.059 0.362,0.096 0.181,0.055 0.302,0.125 0.375,0.2 l 0.126,0.241 -0.039,0.255 -0.135,0.252 c -0.061,0.091 -0.135,0.18 -0.208,0.277 -0.072,0.1 -0.145,0.19 -0.215,0.276 -0.078,0.094 -0.159,0.191 -0.241,0.295 l -1.034,0 c 0.054,-0.06 0.121,-0.14 0.196,-0.231 0.07,-0.095 0.143,-0.195 0.211,-0.295 0.068,-0.107 0.13,-0.211 0.176,-0.317 0.046,-0.107 0.08,-0.202 0.085,-0.292 L 0.501,-3.572 C 0.462,-3.639 0.387,-3.683 0.279,-3.704 c -0.32,-0.059 -0.62,-0.121 -0.897,-0.185 -0.273,-0.065 -0.533,-0.12 -0.774,-0.177 -0.121,-0.035 -0.233,-0.08 -0.349,-0.125 -0.104,-0.053 -0.184,-0.115 -0.238,-0.181 l -0.047,-0.23 c 0.019,-0.086 0.108,-0.18 0.252,-0.282 0.137,-0.11 0.261,-0.2 0.374,-0.275 0.121,-0.075 0.242,-0.145 0.37,-0.215 0.134,-0.076 0.273,-0.151 0.435,-0.228 0.16,-0.079 0.353,-0.175 0.576,-0.289 l 1.236,0 -0.755,0.381 z m -5.776,0 -0.234,0.115 -0.261,0.131 -0.261,0.142 -0.231,0.123 -0.222,0.135 -0.121,0.153 0.04,0.144 c 0.047,0.045 0.14,0.091 0.282,0.135 0.146,0.046 0.308,0.085 0.472,0.126 0.168,0.036 0.334,0.069 0.498,0.1 0.164,0.035 0.319,0.065 0.461,0.101 0.145,0.026 0.263,0.059 0.359,0.096 0.181,0.055 0.309,0.125 0.382,0.2 l 0.126,0.241 -0.039,0.255 -0.135,0.252 c -0.061,0.091 -0.133,0.18 -0.207,0.277 -0.074,0.1 -0.149,0.19 -0.215,0.276 -0.079,0.094 -0.16,0.191 -0.232,0.295 l -1.037,0 c 0.055,-0.06 0.113,-0.14 0.188,-0.231 0.072,-0.095 0.139,-0.195 0.206,-0.295 0.068,-0.107 0.126,-0.211 0.174,-0.317 0.054,-0.107 0.087,-0.202 0.1,-0.292 l -0.046,-0.224 c -0.032,-0.067 -0.107,-0.111 -0.222,-0.132 -0.32,-0.059 -0.613,-0.121 -0.894,-0.185 -0.282,-0.065 -0.54,-0.12 -0.781,-0.177 -0.122,-0.035 -0.236,-0.08 -0.342,-0.125 -0.106,-0.053 -0.187,-0.115 -0.239,-0.181 l -0.048,-0.23 c 0.02,-0.086 0.107,-0.18 0.254,-0.282 0.133,-0.11 0.261,-0.2 0.375,-0.275 0.114,-0.075 0.235,-0.145 0.366,-0.215 0.128,-0.076 0.275,-0.151 0.429,-0.228 0.161,-0.079 0.355,-0.175 0.572,-0.289 l 1.243,0" />
      </g>
      <g
         transform="translate(129.4198,149.33031)"
         id="g1156">
        <path
           id="path1158"
           style="fill:#f7ae14;fill-opacity:1;fill-rule:nonzero;stroke:none"
           d="M 0,0 0,0.994 C 0,1.609 -0.426,1.63 -0.545,1.63 -0.663,1.63 -1.087,1.609 -1.087,0.994 l 0,-0.994 c 0,-0.644 0.188,-0.807 0.542,-0.807 C -0.189,-0.807 0,-0.644 0,0 m -1.471,0.016 0,0.966 c 0,0.587 0.302,0.961 0.926,0.961 0.626,0 0.928,-0.374 0.928,-0.961 l 0,-0.966 c 0,-0.815 -0.302,-1.137 -0.928,-1.137 -0.624,0 -0.926,0.322 -0.926,1.137" />
      </g>
      <g
         transform="translate(130.4227,148.2706)"
         id="g1160">
        <path
           id="path1162"
           style="fill:#f7ae14;fill-opacity:1;fill-rule:nonzero;stroke:none"
           d="m 0,0 0,2.943 1.461,0 0,-0.327 -1.085,0 0,-0.945 1.029,0 0,-0.326 -1.029,0 0,-1.345" />
      </g>
      <g
         transform="translate(132.23309,148.2706)"
         id="g1164">
        <path
           id="path1166"
           style="fill:#f7ae14;fill-opacity:1;fill-rule:nonzero;stroke:none"
           d="m 0,0 0,2.943 1.462,0 0,-0.327 -1.087,0 0,-0.945 1.03,0 0,-0.326 -1.03,0 0,-1.345" />
      </g>
      <g
         transform="translate(123.897,148.40109)"
         id="g1168">
        <path
           id="path1170"
           style="fill:#000000;fill-opacity:1;fill-rule:nonzero;stroke:none"
           d="m 0,0 -0.65,0 2.663,9.188 0.65,0" />
      </g>
    </g>
  </g>
</svg>
